{
    "asset" : {
        "generator" : "Khronos glTF Blender I/O v1.8.19",
        "version" : "2.0"
    },
    "scene" : 0,
    "scenes" : [
        {
            "name" : "Scene",
            "nodes" : [
                0
            ]
        }
    ],
    "nodes" : [
        {
            "mesh" : 0,
            "name" : "\u52a8\u7269_\u718a"
        }
    ],
    "materials" : [
        {
            "doubleSided" : true,
            "name" : "Mat3d66-811697-1-7794",
            "pbrMetallicRoughness" : {
                "baseColorTexture" : {
                    "index" : 0
                },
                "metallicFactor" : 0,
                "roughnessFactor" : 0.5
            }
        }
    ],
    "meshes" : [
        {
            "name" : "Obj3d66-811697-1-693",
            "primitives" : [
                {
                    "attributes" : {
                        "POSITION" : 0,
                        "NORMAL" : 1,
                        "TEXCOORD_0" : 2,
                        "TEXCOORD_1" : 3,
                        "TEXCOORD_2" : 4,
                        "TEXCOORD_3" : 5,
                        "TEXCOORD_4" : 6
                    },
                    "indices" : 7,
                    "material" : 0
                }
            ]
        }
    ],
    "textures" : [
        {
            "sampler" : 0,
            "source" : 0
        }
    ],
    "images" : [
        {
            "bufferView" : 8,
            "mimeType" : "image/jpeg",
            "name" : "3d66Model-811697-files-1"
        }
    ],
    "accessors" : [
        {
            "bufferView" : 0,
            "componentType" : 5126,
            "count" : 2000,
            "max" : [
                0.5755149722099304,
                1.5453200340270996,
                1.3249850273132324
            ],
            "min" : [
                -0.5755150318145752,
                1.1175870895385742e-08,
                -1.3249850273132324
            ],
            "type" : "VEC3"
        },
        {
            "bufferView" : 1,
            "componentType" : 5126,
            "count" : 2000,
            "type" : "VEC3"
        },
        {
            "bufferView" : 2,
            "componentType" : 5126,
            "count" : 2000,
            "type" : "VEC2"
        },
        {
            "bufferView" : 3,
            "componentType" : 5126,
            "count" : 2000,
            "type" : "VEC2"
        },
        {
            "bufferView" : 4,
            "componentType" : 5126,
            "count" : 2000,
            "type" : "VEC2"
        },
        {
            "bufferView" : 5,
            "componentType" : 5126,
            "count" : 2000,
            "type" : "VEC2"
        },
        {
            "bufferView" : 6,
            "componentType" : 5126,
            "count" : 2000,
            "type" : "VEC2"
        },
        {
            "bufferView" : 7,
            "componentType" : 5123,
            "count" : 8628,
            "type" : "SCALAR"
        }
    ],
    "bufferViews" : [
        {
            "buffer" : 0,
            "byteLength" : 24000,
            "byteOffset" : 0
        },
        {
            "buffer" : 0,
            "byteLength" : 24000,
            "byteOffset" : 24000
        },
        {
            "buffer" : 0,
            "byteLength" : 16000,
            "byteOffset" : 48000
        },
        {
            "buffer" : 0,
            "byteLength" : 16000,
            "byteOffset" : 64000
        },
        {
            "buffer" : 0,
            "byteLength" : 16000,
            "byteOffset" : 80000
        },
        {
            "buffer" : 0,
            "byteLength" : 16000,
            "byteOffset" : 96000
        },
        {
            "buffer" : 0,
            "byteLength" : 16000,
            "byteOffset" : 112000
        },
        {
            "buffer" : 0,
            "byteLength" : 17256,
            "byteOffset" : 128000
        },
        {
            "buffer" : 0,
            "byteLength" : 684824,
            "byteOffset" : 145256
        }
    ],
    "samplers" : [
        {
            "magFilter" : 9729,
            "minFilter" : 9987
        }
    ],
    "buffers" : [
        {
            "byteLength" : 830080,
            "uri" : "data:application/octet-stream;base64,"
        }
    ]
}
